<svg width="52" height="52" viewBox="0 0 52 52" fill="none" xmlns="http://www.w3.org/2000/svg">
<g clip-path="url(#clip0_1073_12920)">
<path d="M44 28C46.2091 28 48.0339 29.803 47.6674 31.9815C47.3678 33.7624 46.8675 35.5081 46.1731 37.1844C44.967 40.0962 43.1992 42.742 40.9706 44.9706C38.742 47.1992 36.0962 48.967 33.1844 50.1731C30.2726 51.3792 27.1517 52 24 52C20.8483 52 17.7274 51.3792 14.8156 50.1731C11.9038 48.967 9.25804 47.1992 7.02944 44.9706C4.80083 42.742 3.033 40.0962 1.82689 37.1844C1.13253 35.5081 0.632167 33.7624 0.332566 31.9815C-0.0339248 29.803 1.79086 28 4 28L24 28H44Z" fill="#CDF462"/>
<path d="M38 8C40.2091 8 42.0443 9.81237 41.5574 11.9672C41.3323 12.9631 41.0224 13.9405 40.6298 14.8883C39.7252 17.0722 38.3994 19.0565 36.7279 20.7279C35.0565 22.3994 33.0722 23.7252 30.8883 24.6298C28.7044 25.5344 26.3638 26 24 26C21.6362 26 19.2956 25.5344 17.1117 24.6298C14.9278 23.7252 12.9435 22.3994 11.2721 20.7279C9.60062 19.0565 8.27475 17.0722 7.37017 14.8883C6.97757 13.9405 6.66766 12.9631 6.44262 11.9672C5.95573 9.81236 7.79086 8 10 8L24 8H38Z" fill="#4B927E"/>
</g>
<defs>
<clipPath id="clip0_1073_12920">
<rect width="52" height="52" fill="white"/>
</clipPath>
</defs>
</svg>
