<svg width="52" height="48" viewBox="0 0 52 48" fill="none" xmlns="http://www.w3.org/2000/svg">
<g clip-path="url(#clip0_1079_11804)">
<path d="M11.9841 23.4937C13.6366 20.9229 17.3945 20.9229 19.047 23.4937L29.9906 40.518C31.7866 43.3119 29.7805 46.9862 26.4592 46.9862H4.57194C1.25055 46.9862 -0.755522 43.3119 1.04048 40.518L11.9841 23.4937Z" fill="#4B927E"/>
<circle cx="26" cy="13" r="9" fill="#CDF462"/>
<path d="M51.0732 43.616C51.6265 44.5744 51.3015 45.8143 50.2762 46.2306C47.3624 47.4136 44.1239 47.6258 41.0515 46.8026C37.3299 45.8054 34.1569 43.3707 32.2305 40.034C30.304 36.6973 29.782 32.732 30.7792 29.0104C31.6024 25.938 33.4054 23.2395 35.8869 21.3076C36.7601 20.6278 37.9964 20.9663 38.5497 21.9247L44.8114 32.7704L51.0732 43.616Z" fill="#CFB7F5"/>
</g>
<defs>
<clipPath id="clip0_1079_11804">
<rect width="52" height="46.7037" fill="white" transform="translate(0 0.962891)"/>
</clipPath>
</defs>
</svg>
