<svg width="52" height="52" viewBox="0 0 52 52" fill="none" xmlns="http://www.w3.org/2000/svg">
<g clip-path="url(#clip0_1097_17383)">
<path d="M24.0001 29C24.0001 27.8954 23.1031 26.9913 22.0024 27.0833C19.5351 27.2894 17.1105 27.8764 14.8157 28.8269C11.9038 30.033 9.2581 31.8008 7.0295 34.0294C4.80089 36.258 3.03306 38.9038 1.82695 41.8156C0.876414 44.1104 0.289429 46.535 0.0833451 49.0023C-0.00859675 50.103 0.895491 51 2.00006 51L22.0001 51C23.1046 51 24.0001 50.1046 24.0001 49L24.0001 29Z" fill="#CFB7F5"/>
<path d="M45.9999 51C47.1045 51 48.0086 50.1029 47.9167 49.0021C47.4463 43.3686 44.998 38.057 40.9705 34.0294C36.4696 29.5286 30.3651 27 23.9999 27C17.6347 27 11.5302 29.5286 7.02935 34.0294C3.00178 38.057 0.553525 43.3686 0.0831483 49.0021C-0.0087597 50.1029 0.895339 51 1.99991 51L23.9999 51H45.9999Z" fill="#CFB7F5"/>
<path d="M26.5384 25.0624C25.3617 26.9307 22.6381 26.9307 21.4614 25.0624L11.308 8.94159C10.0497 6.94383 11.4854 4.34277 13.8464 4.34277L34.1534 4.34278C36.5144 4.34278 37.9501 6.94384 36.6919 8.94159L26.5384 25.0624Z" fill="#4B927E"/>
</g>
<defs>
<clipPath id="clip0_1097_17383">
<rect width="52" height="52" fill="white"/>
</clipPath>
</defs>
</svg>
