<svg width="52" height="52" viewBox="0 0 52 52" fill="none" xmlns="http://www.w3.org/2000/svg">
<rect y="38" width="48" height="14" rx="7" fill="#C2EE4A"/>
<circle cx="24" cy="12" r="7" fill="#CFB7F5"/>
<path d="M37 20C39.2091 20 41.0466 21.8149 40.5316 23.9632C40.324 24.829 40.0483 25.6792 39.706 26.5056C38.8516 28.5682 37.5994 30.4422 36.0208 32.0208C34.4422 33.5994 32.5682 34.8516 30.5056 35.706C28.4431 36.5603 26.2325 37 24 37C21.7675 37 19.5569 36.5603 17.4944 35.706C15.4318 34.8516 13.5578 33.5994 11.9792 32.0208C10.4006 30.4422 9.14838 28.5682 8.29405 26.5056C7.95174 25.6792 7.676 24.829 7.46843 23.9632C6.95341 21.8149 8.79086 20 11 20L24 20H37Z" fill="#4B927E"/>
</svg>
